<?xml version="1.0" encoding="UTF-8"?>
<svg version="1.1" xmlns="http://www.w3.org/2000/svg" width="512" height="512">
<path d="M0 0 C1.01790619 0.00215515 2.03581238 0.0043103 3.08456421 0.00653076 C17.69363523 0.05620146 32.02575853 0.30709809 46.375 3.3125 C47.34985352 3.51117676 48.32470703 3.70985352 49.32910156 3.91455078 C97.7109774 14.03517194 141.69928269 35.9516877 177.375 70.3125 C178.3640332 71.26068604 178.3640332 71.26068604 179.37304688 72.22802734 C188.86130305 81.37247479 197.6012044 90.66984009 205.375 101.3125 C206.23306152 102.46355017 207.09113451 103.61459177 207.94921875 104.765625 C213.98736829 112.95680614 219.34595521 121.47054105 224.375 130.3125 C224.73948242 130.94430176 225.10396484 131.57610352 225.47949219 132.22705078 C247.08534998 169.97532572 256.85198095 212.74189997 256.6875 255.9375 C256.68534485 256.95540619 256.6831897 257.97331238 256.68096924 259.02206421 C256.63129854 273.63113523 256.38040191 287.96325853 253.375 302.3125 C253.07698486 303.77478027 253.07698486 303.77478027 252.77294922 305.26660156 C242.65232806 353.6484774 220.7358123 397.63678269 186.375 433.3125 C185.74287598 433.97185547 185.11075195 434.63121094 184.45947266 435.31054688 C175.31502521 444.79880305 166.01765991 453.5387044 155.375 461.3125 C154.22394983 462.17056152 153.07290823 463.02863451 151.921875 463.88671875 C143.73224019 469.92427396 135.22961724 475.30707302 126.375 480.3125 C125.66778809 480.7146875 124.96057617 481.116875 124.23193359 481.53125 C101.09654164 494.5566741 75.92537591 503.30551461 49.9375 508.625 C49.21860596 508.77235596 48.49971191 508.91971191 47.7590332 509.0715332 C33.08339502 511.86090125 18.55831162 512.66142619 3.64770508 512.62817383 C0.70811513 512.6250221 -2.2304558 512.64854926 -5.16992188 512.67382812 C-18.54306192 512.71848737 -31.43916711 511.51301542 -44.625 509.3125 C-46.33055054 509.03031616 -46.33055054 509.03031616 -48.07055664 508.74243164 C-91.33802759 500.97044532 -132.38793216 480.98345309 -165.625 452.3125 C-166.37007813 451.67828125 -167.11515625 451.0440625 -167.8828125 450.390625 C-181.38779833 438.57948485 -194.05918743 425.82889772 -204.625 411.3125 C-205.48149066 410.16255169 -206.33826433 409.01281411 -207.1953125 407.86328125 C-213.23534209 399.67315742 -218.61867614 391.16870382 -223.625 382.3125 C-224.0271875 381.60528809 -224.429375 380.89807617 -224.84375 380.16943359 C-237.8691741 357.03404164 -246.61801461 331.86287591 -251.9375 305.875 C-252.08485596 305.15610596 -252.23221191 304.43721191 -252.3840332 303.6965332 C-255.35789088 288.05024391 -255.99800362 272.57681954 -255.9375 256.6875 C-255.93534485 255.66959381 -255.9331897 254.65168762 -255.93096924 253.60293579 C-255.88129854 238.99386477 -255.63040191 224.66174147 -252.625 210.3125 C-252.42632324 209.33764648 -252.22764648 208.36279297 -252.02294922 207.35839844 C-241.90232806 158.9765226 -219.9858123 114.98821731 -185.625 79.3125 C-184.99287598 78.65314453 -184.36075195 77.99378906 -183.70947266 77.31445312 C-174.56502521 67.82619695 -165.26765991 59.0862956 -154.625 51.3125 C-153.47394983 50.45443848 -152.32290823 49.59636549 -151.171875 48.73828125 C-142.98224019 42.70072604 -134.47961724 37.31792698 -125.625 32.3125 C-124.91778809 31.9103125 -124.21057617 31.508125 -123.48193359 31.09375 C-100.34654164 18.0683259 -75.17537591 9.31948539 -49.1875 4 C-48.46860596 3.85264404 -47.74971191 3.70528809 -47.0090332 3.5534668 C-31.36274391 0.57960912 -15.88931954 -0.06050362 0 0 Z " fill="#334C8C" transform="translate(255.625,-0.3125)"/>
<path d="M0 0 C2.59182017 -0.01205727 5.18137337 -0.06153713 7.77270508 -0.11157227 C9.43350093 -0.12102219 11.09431114 -0.12826404 12.75512695 -0.13305664 C13.90675575 -0.16235512 13.90675575 -0.16235512 15.08164978 -0.19224548 C18.89100813 -0.16016438 20.9555548 0.30303762 24.1184082 2.47387695 C26.60185204 6.11060611 26.84302258 8.95016736 26.76293945 13.21069336 C26.76535141 13.94879745 26.76776337 14.68690155 26.77024841 15.44737244 C26.76927246 17.00142817 26.75593863 18.55551976 26.73095703 20.109375 C26.69657941 22.48484455 26.71032283 24.85660433 26.72973633 27.23217773 C26.72283896 28.7458654 26.71316754 30.2595435 26.70043945 31.77319336 C26.70539932 32.48057144 26.71035919 33.18794952 26.71546936 33.91676331 C26.63755205 37.18505363 26.32129283 39.15204309 24.45874023 41.87231445 C21.56112473 43.80831843 19.84210344 43.92308388 16.37231445 43.92944336 C14.69298828 43.95748047 14.69298828 43.95748047 12.97973633 43.98608398 C11.23080078 43.98705078 11.23080078 43.98705078 9.4465332 43.98803711 C-4.05603585 43.90684285 -4.05603585 43.90684285 -15.8034668 49.80053711 C-19.99003218 55.12889305 -20.18880838 59.91203648 -20.2800293 66.44506836 C-20.29939545 67.30363937 -20.3187616 68.16221039 -20.3387146 69.04679871 C-20.39828236 71.77711185 -20.44480414 74.50746768 -20.4909668 77.23803711 C-20.52916759 79.09417484 -20.56822054 80.95029523 -20.6081543 82.80639648 C-20.70396506 87.34596855 -20.78808 91.88562357 -20.8659668 96.42553711 C-18.95134644 96.39411621 -18.95134644 96.39411621 -16.99804688 96.36206055 C-12.25516002 96.2895728 -7.51232199 96.24370524 -2.76904297 96.20581055 C-0.71752687 96.18571512 1.33393209 96.15843387 3.38525391 96.1237793 C6.33681346 96.07517042 9.28761469 96.05254759 12.23950195 96.03491211 C13.15426804 96.01426697 14.06903412 95.99362183 15.01152039 95.97235107 C19.2421643 95.97086571 21.53493208 96.06438457 25.22900391 98.29125977 C27.1340332 100.42553711 27.1340332 100.42553711 27.5090332 102.96459961 C27.3234082 104.49213867 27.3234082 104.49213867 27.1340332 106.05053711 C26.93100586 107.87584961 26.93100586 107.87584961 26.72387695 109.73803711 C26.63219238 110.45217773 26.54050781 111.16631836 26.44604492 111.90209961 C26.07203906 114.92692319 25.76166003 117.95611849 25.45043945 120.98803711 C25.20072236 123.34237243 24.94940728 125.69653878 24.6965332 128.05053711 C24.5747168 129.20118652 24.45290039 130.35183594 24.32739258 131.53735352 C24.20299805 132.62709473 24.07860352 133.71683594 23.95043945 134.83959961 C23.84159424 135.81880371 23.73274902 136.79800781 23.62060547 137.80688477 C23.14114465 140.38726449 22.52384102 142.20828973 21.1340332 144.42553711 C17.75010312 146.11750215 13.90925529 145.5454026 10.1887207 145.52319336 C9.3037088 145.52177841 8.4186969 145.52036346 7.50686646 145.51890564 C4.6742213 145.51329851 1.84165456 145.50074482 -0.9909668 145.48803711 C-2.90893441 145.48302303 -4.82690325 145.47845996 -6.74487305 145.47436523 C-11.45193461 145.46332677 -16.1589374 145.44605736 -20.8659668 145.42553711 C-20.86320142 145.97937482 -20.86043604 146.53321253 -20.85758686 147.1038332 C-20.79136128 160.57400729 -20.7418944 174.0441529 -20.71053028 187.51445484 C-20.69485429 194.02857834 -20.67358059 200.54258461 -20.63964844 207.05664062 C-20.60712419 213.33952173 -20.58912836 219.62228987 -20.58133507 225.90524864 C-20.5757791 228.30591295 -20.5649301 230.70657088 -20.54877663 233.10718727 C-20.52709484 236.46189509 -20.52399603 239.81613217 -20.52539062 243.17089844 C-20.5146048 244.16999237 -20.50381897 245.1690863 -20.4927063 246.19845581 C-20.49683029 247.11130844 -20.50095428 248.02416107 -20.50520325 248.9646759 C-20.50243787 249.75833966 -20.49967249 250.55200342 -20.49682331 251.3697176 C-20.9602036 253.95035702 -21.82141576 254.83397135 -23.8659668 256.42553711 C-25.80775452 256.79975891 -25.80775452 256.79975891 -28.03027344 256.79785156 C-28.86446304 256.80408035 -29.69865265 256.81030914 -30.55812073 256.81672668 C-31.90353188 256.80291206 -31.90353188 256.80291206 -33.27612305 256.78881836 C-34.19936874 256.78931686 -35.12261444 256.78981537 -36.07383728 256.79032898 C-38.0248327 256.7879889 -39.97583115 256.77826428 -41.92675781 256.76171875 C-44.92043907 256.73810044 -47.91323153 256.74116143 -50.90698242 256.74780273 C-52.80086796 256.74222692 -54.69474974 256.73511765 -56.58862305 256.72631836 C-57.48758804 256.72722977 -58.38655304 256.72814117 -59.3127594 256.7290802 C-60.14379684 256.71954819 -60.97483429 256.71001617 -61.83105469 256.70019531 C-62.56369034 256.69558792 -63.29632599 256.69098053 -64.05116272 256.68623352 C-65.8659668 256.42553711 -65.8659668 256.42553711 -67.8659668 254.42553711 C-68.11206245 252.47714806 -68.11206245 252.47714806 -68.10647583 250.04696655 C-68.10922516 249.12707443 -68.11197449 248.20718231 -68.11480713 247.25941467 C-68.10761658 246.24737473 -68.10042603 245.23533478 -68.09301758 244.19262695 C-68.09330963 243.12919571 -68.09360168 242.06576447 -68.09390259 240.97010803 C-68.09250514 237.44214827 -68.07692436 233.91439764 -68.0612793 230.38647461 C-68.05755064 227.9455273 -68.05470298 225.50457849 -68.05270386 223.06362915 C-68.04505578 216.62902721 -68.0253972 210.1945151 -68.0032959 203.75994873 C-67.98286273 197.19796972 -67.97370756 190.63597624 -67.96362305 184.07397461 C-67.94215243 171.19112371 -67.90838506 158.30833518 -67.8659668 145.42553711 C-68.81963135 145.44648438 -69.7732959 145.46743164 -70.75585938 145.48901367 C-74.29476907 145.56142479 -77.83361336 145.60733982 -81.37304688 145.64526367 C-82.90473441 145.6653769 -84.43634519 145.69267161 -85.96777344 145.72729492 C-88.16970753 145.77583026 -90.37062661 145.79850707 -92.57299805 145.81616211 C-93.25747513 145.83680725 -93.94195221 145.85745239 -94.64717102 145.87872314 C-97.78121685 145.88020162 -99.4378803 145.8170628 -101.79553223 143.6607666 C-102.9176749 141.31756277 -103.25516969 139.85237 -103.28588867 137.27124023 C-103.30180054 136.46360229 -103.3177124 135.65596436 -103.33410645 134.82385254 C-103.33430786 133.96022095 -103.33450928 133.09658936 -103.3347168 132.20678711 C-103.34233032 131.31189575 -103.34994385 130.41700439 -103.35778809 129.49499512 C-103.36857957 127.6054971 -103.37144605 125.71593948 -103.36694336 123.82641602 C-103.36597007 120.9352698 -103.40762026 118.04676958 -103.4519043 115.15600586 C-103.45711074 113.31877181 -103.4597995 111.48152854 -103.4597168 109.64428711 C-103.47611206 108.78065552 -103.49250732 107.91702393 -103.50939941 107.02722168 C-103.46273773 102.97735077 -103.40108911 101.07688198 -100.76953125 97.8737793 C-97.20467668 96.0956983 -94.79227494 95.96721697 -90.81518555 96.03491211 C-89.82697563 96.04340179 -89.82697563 96.04340179 -88.81880188 96.05206299 C-86.72959464 96.07432471 -84.64214906 96.12449381 -82.5534668 96.17553711 C-81.13096566 96.19561567 -79.70843743 96.21386407 -78.28588867 96.23022461 C-74.812016 96.27415352 -71.33916354 96.34310615 -67.8659668 96.42553711 C-67.88167725 95.14090576 -67.8973877 93.85627441 -67.91357422 92.53271484 C-67.96850656 87.69635466 -68.00254361 82.86002112 -68.03076172 78.0234375 C-68.04570584 75.94331196 -68.06606857 73.86321713 -68.09228516 71.78320312 C-68.34688628 51.04069997 -67.3741644 31.25813423 -52.0925293 15.38647461 C-36.87910945 1.98798906 -19.44270202 0.04285406 0 0 Z " fill="#FDFEFE" transform="translate(293.865966796875,127.574462890625)"/>
</svg>
